# xmcd
#
# Track frame offsets:
#	150
#	14064
#	25082
#	35335
#	45591
#	58446
#	70641
#	82568
#	95205
#	108486
#	121680
#	135497
#	149443
#	166516
#	180274
#	195314
#
# Disc length: 2749 seconds
#
# Revision: 2
# Processed by: cddbd v1.5.2PL0 Copyright (c) Steve Scherf et al.
# Submitted via: EZCDAudioConverter 2.1.7.1
#
DISCID=c70abb10
DTITLE=V/A - Trojan Rare Groove 2/3
DYEAR=1999
DGENRE=
TTITLE0=Herman - Love Brother
TTITLE1=Jamaicans - Love Uprising
TTITLE2=Winston Heywood - Never Fall In Love
TTITLE3=The Jet Scene - Jet 747 [Version 4]
TTITLE4=Ken Parker - Genuine Love
TTITLE5=Ansel Collins - Nuclear Weapon
TTITLE6=Herman - Uganda
TTITLE7=The Linkers - Bongo Man
TTITLE8=Audley Rollins - Repatriation
TTITLE9=Hugh Roy Junior - Repatriation Version
TTITLE10=Bongo Herman, Les and Bunny - Chairman Of The Board
TTITLE11=Love Generation - Medicine Man
TTITLE12=Horace Andy - Feel Good
TTITLE13=King Smiley - Tipatone
TTITLE14=Bongo Herman - African Breakfast
TTITLE15=Keith Hudson - True True To My Heart
EXTD=
EXTT0=
EXTT1=
EXTT2=
EXTT3=
EXTT4=
EXTT5=
EXTT6=
EXTT7=
EXTT8=
EXTT9=
EXTT10=
EXTT11=
EXTT12=
EXTT13=
EXTT14=
EXTT15=
PLAYORDER=
